<?xml version="1.0" standalone="no"?>
<!DOCTYPE svg PUBLIC "-//W3C//DTD SVG 20010904//EN"
 "http://www.w3.org/TR/2001/REC-SVG-20010904/DTD/svg10.dtd">
<svg version="1.0" xmlns="http://www.w3.org/2000/svg"
 width="750.000000pt" height="338.000000pt" viewBox="0 0 750.000000 338.000000"
 preserveAspectRatio="xMidYMid meet">

<g transform="translate(0.000000,338.000000) scale(0.100000,-0.100000)"
fill="#000000" stroke="none">
<path d="M26 3354 l-26 -27 0 -1637 0 -1637 26 -27 27 -26 3697 0 3697 0 27
26 26 27 0 1637 0 1637 -26 27 -27 26 -3697 0 -3697 0 -27 -26z m3364 -949 l0
-205 -30 0 -30 0 0 205 0 205 30 0 30 0 0 -205z m1320 135 l0 -71 30 16 c35
18 99 19 121 2 32 -24 39 -56 39 -171 l0 -116 -25 0 c-25 0 -25 0 -26 98 -1
53 -4 108 -8 122 -10 36 -49 47 -94 25 l-37 -17 0 -114 0 -114 -30 0 -30 0 0
205 0 205 30 0 30 0 0 -70z m-1974 17 c29 -34 31 -76 5 -108 -18 -23 -18 -23
15 -55 38 -35 45 -83 19 -133 -23 -46 -69 -61 -184 -61 l-101 0 0 196 0 196
111 -4 c107 -3 112 -4 135 -31z m514 8 c0 -22 -4 -25 -35 -25 -31 0 -35 3 -35
25 0 22 4 25 35 25 31 0 35 -3 35 -25z m1110 0 c0 -21 -5 -25 -30 -25 -25 0
-30 4 -30 25 0 21 5 25 30 25 25 0 30 -4 30 -25z m-830 -35 l0 -40 55 0 c48 0
55 -2 55 -20 0 -18 -7 -20 -55 -20 l-55 0 0 -90 c0 -77 3 -93 20 -110 17 -17
28 -19 56 -14 33 6 36 5 32 -17 -3 -21 -9 -24 -55 -27 -45 -3 -56 1 -78 22
-24 24 -25 31 -25 131 0 98 -1 105 -20 105 -13 0 -20 7 -20 20 0 13 7 20 20
20 17 0 20 7 20 40 0 36 3 40 25 40 23 0 25 -4 25 -40z m970 0 l0 -40 55 0
c48 0 55 -2 55 -20 0 -18 -7 -20 -55 -20 l-55 0 0 -90 c0 -77 3 -93 20 -110
17 -17 28 -19 56 -14 33 6 36 5 32 -17 -3 -21 -9 -24 -55 -27 -45 -3 -56 1
-78 22 -24 24 -25 31 -25 131 0 98 -1 105 -20 105 -13 0 -20 7 -20 20 0 13 7
20 20 20 17 0 20 7 20 40 0 36 3 40 25 40 23 0 25 -4 25 -40z m-1599 -122 c0
-123 9 -161 39 -171 18 -7 37 -4 63 6 l37 16 0 115 0 116 30 0 30 0 0 -145 0
-145 -30 0 c-16 0 -30 5 -30 11 0 5 -10 3 -22 -5 -12 -9 -42 -16 -66 -16 -35
0 -49 6 -73 29 -29 29 -29 30 -29 150 l0 121 25 0 c25 0 25 -1 26 -82z m339
-63 l0 -145 -25 0 -25 0 0 145 0 145 25 0 25 0 0 -145z m683 43 c14 -57 28
-96 31 -88 3 8 19 53 34 100 25 73 32 85 53 88 22 3 27 -5 59 -97 19 -55 37
-95 41 -89 4 6 15 51 25 99 18 88 18 89 47 89 26 0 29 -3 23 -22 -3 -13 -20
-78 -37 -145 -31 -120 -33 -123 -60 -123 -26 0 -29 5 -60 100 -19 55 -36 100
-39 100 -3 0 -21 -45 -39 -101 -31 -96 -34 -100 -59 -97 -25 3 -29 10 -59 122
-17 66 -34 130 -38 143 -5 20 -2 23 24 23 29 0 30 -1 54 -102z m437 -43 l0
-145 -30 0 -30 0 0 145 0 145 30 0 30 0 0 -145z m-3325 -545 c165 -285 302
-519 305 -519 3 0 140 234 305 519 l300 520 197 0 c109 0 198 -1 198 -3 0 -2
-67 -118 -148 -258 -81 -140 -305 -525 -497 -856 -192 -332 -352 -603 -355
-603 -3 0 -163 271 -355 603 -192 331 -416 716 -497 856 -81 140 -148 256
-148 258 0 2 89 3 198 3 l197 0 300 -520z m4685 50 c20 -5 57 -23 82 -39 61
-39 88 -91 88 -169 0 -78 -36 -134 -115 -178 l-56 -31 34 -7 c19 -4 53 -19 74
-35 111 -80 111 -274 2 -378 -65 -61 -119 -78 -254 -78 -100 0 -131 4 -187 23
l-68 24 0 64 c0 35 2 64 4 64 2 0 32 -13 68 -29 167 -76 319 -56 373 50 22 42
19 137 -5 177 -26 42 -70 61 -165 69 l-75 6 0 47 0 48 67 7 c119 13 174 58
175 146 1 68 -42 109 -128 123 -53 9 -173 -16 -231 -49 -25 -14 -49 -25 -54
-25 -5 0 -9 29 -9 65 l0 64 73 22 c39 11 77 22 82 24 23 8 193 4 225 -5z
m-2940 -382 c73 -205 135 -378 139 -385 3 -6 68 160 143 370 l136 382 66 3 65
3 -29 -78 c-15 -43 -88 -243 -162 -446 l-133 -367 -85 2 -85 3 -142 390 c-78
215 -151 414 -162 443 l-20 52 68 0 68 0 133 -372z m1833 139 c85 -50 122
-121 133 -258 l7 -79 -252 0 c-152 0 -251 -4 -251 -10 0 -5 5 -32 11 -61 13
-61 72 -132 122 -148 94 -29 205 -16 295 34 25 14 46 25 48 25 2 0 4 -29 4
-65 l0 -64 -85 -27 c-73 -23 -98 -26 -183 -22 -118 4 -189 34 -251 104 -56 64
-76 128 -76 244 0 145 44 246 134 306 68 44 108 55 206 51 78 -2 98 -7 138
-30z m-1093 -222 c0 -250 5 -280 49 -319 15 -14 37 -19 80 -20 48 -1 71 5 127
34 l69 35 3 253 2 252 60 0 60 0 0 -335 0 -335 -60 0 -60 0 0 30 c0 17 -2 30
-5 30 -2 0 -26 -14 -52 -30 -59 -38 -102 -50 -174 -50 -69 0 -114 18 -156 62
-58 59 -63 92 -63 374 l0 254 60 0 60 0 0 -235z"/>
<path d="M2550 2490 l0 -60 39 0 c58 0 98 18 105 46 13 50 -23 74 -110 74
l-34 0 0 -60z"/>
<path d="M2550 2314 l0 -77 65 5 c82 7 115 27 115 71 0 17 -4 38 -8 45 -12 17
-68 32 -124 32 l-48 0 0 -76z"/>
<path d="M4405 1541 c-77 -20 -131 -75 -149 -153 l-6 -28 191 0 192 0 -7 42
c-9 56 -34 98 -71 119 -36 21 -109 31 -150 20z"/>
</g>
</svg>
